# xmcd
#
# Track frame offsets:
# 150
# 18114
# 29586
# 43012
# 56922
# 81310
# 102416
# 117848
# 134874
# 153737
# 169376
# 195943
# 215877
# 232069
# 251491
# 276469
# 293033
# 312468
# 350977
#
# Disc length: 4732 seconds
#
#
# Revision: 0
# Processed by: cddbd v1.5.1PL2 Copyright (c) Steve Scherf et al.
# Submitted via: FreeRIP 2.52 
#
DISCID=37127a13
DTITLE=Homecoming Friends - Live from Toronto
DYEAR=2006
DGENRE=Gospel
TTITLE0=Bread upon the water
TTITLE1=Some things never change
TTITLE2=Your my best friend
TTITLE3=When I get carried away
TTITLE4=Jerusalem
TTITLE5=Favorite song of all
TTITLE6=He saw it all
TTITLE7=Sheltered in the arms of God
TTITLE8=Trumpet of Jesus
TTITLE9=Walk with me, Lord
TTITLE10=Shout to the Lord - Rhapsody in blue
TTITLE11=Great is thy reward - Orange blossom specials
TTITLE12=Healer in the house
TTITLE13=This coud be the dawning of thet day - Until then
TTITLE14=Sanctuary
TTITLE15=I'll tell it where I go
TTITLE16=Why me
TTITLE17=I bowed on my knees
TTITLE18=Data
EXTD=
EXTT0=
EXTT1=
EXTT2=
EXTT3=
EXTT4=
EXTT5=
EXTT6=
EXTT7=
EXTT8=
EXTT9=
EXTT10=
EXTT11=
EXTT12=
EXTT13=
EXTT14=
EXTT15=
EXTT16=
EXTT17=
EXTT18=
PLAYORDER=
